<?xml version="1.0" encoding="UTF-8" standalone="no"?>
<svg
   xmlns:dc="http://purl.org/dc/elements/1.1/"
   xmlns:cc="http://creativecommons.org/ns#"
   xmlns:rdf="http://www.w3.org/1999/02/22-rdf-syntax-ns#"
   xmlns:svg="http://www.w3.org/2000/svg"
   xmlns="http://www.w3.org/2000/svg"
   xmlns:sodipodi="http://sodipodi.sourceforge.net/DTD/sodipodi-0.dtd"
   xmlns:inkscape="http://www.inkscape.org/namespaces/inkscape"
   inkscape:version="1.0 (1.0+r73+1)"
   sodipodi:docname="list_icon_salados.svg"
   viewBox="0 0 100 100"
   height="100"
   width="100"
   id="svg885"
   version="1.1">
  <metadata
     id="metadata891">
    <rdf:RDF>
      <cc:Work
         rdf:about="">
        <dc:format>image/svg+xml</dc:format>
        <dc:type
           rdf:resource="http://purl.org/dc/dcmitype/StillImage" />
        <dc:title></dc:title>
      </cc:Work>
    </rdf:RDF>
  </metadata>
  <defs
     id="defs889" />
  <sodipodi:namedview
     inkscape:current-layer="g893"
     inkscape:window-maximized="1"
     inkscape:window-y="0"
     inkscape:window-x="0"
     inkscape:cy="52.506449"
     inkscape:cx="57.000007"
     inkscape:zoom="4.0000002"
     fit-margin-bottom="0"
     fit-margin-right="0"
     fit-margin-left="0"
     fit-margin-top="0"
     showgrid="false"
     id="namedview887"
     inkscape:window-height="698"
     inkscape:window-width="1360"
     inkscape:pageshadow="2"
     inkscape:pageopacity="0"
     guidetolerance="10"
     gridtolerance="10"
     objecttolerance="10"
     borderopacity="1"
     bordercolor="#666666"
     pagecolor="#ffffff"
     inkscape:document-rotation="0" />
  <g
     transform="translate(-0.21726428,-1.4091521)"
     style="display:inline"
     id="g893"
     inkscape:label="Image"
     inkscape:groupmode="layer">
    <path
       sodipodi:nodetypes="sssssssssssssssssscssssccssssssscsssssssssssscssssssssssssccsssssssssssssscccssssssssscsssssssssccsccccccssssssssscssssssscssss"
       id="path897"
       d="M 47.786848,93.945703 C 38.594722,91.41063 31.939424,86.50119 23.429619,77.92261 22.033848,76.515558 15.801651,77.235522 14.016511,76.85939 12.504349,76.540774 10.651774,76.108212 9.6967376,75.591434 c -0.955038,-0.516778 -2.577011,-1.510745 -3.313601,-1.510745 -1.634791,0 -6.1782318,-2.640893 -6.1782318,-4.320878 0,-1.507824 7.314002,-14.534847 10.5608612,-18.81003 1.31793,-1.735335 3.572985,-4.774618 5.584518,-7.263997 8.26811,-10.232226 17.206788,-19.112054 25.795708,-25.393139 2.933487,-2.145262 7.559359,-5.240502 10.471359,-7.173383 2.91201,-1.9328801 5.76346,-3.5143277 6.33656,-3.5143277 0.57309,0 2.579023,2.0094632 3.162186,4.4437127 0.892932,3.727295 2.064842,8.519927 3.048312,11.844214 0.402718,1.361252 0.20252,3.731685 0.203327,3.938092 0.0059,1.504738 1.204604,3.910184 1.129153,6.88555 -0.08903,3.510972 -0.543026,7.706961 -2.349377,12.068729 -0.109288,0.263896 -1.77317,2.195231 -1.147889,2.222252 1.729362,0.07473 9.418694,-2.293167 10.658644,-2.453672 24.588752,-3.182893 21.344846,-0.933676 21.222817,-1.400267 0.420114,-0.349652 5.754556,0.350125 5.323816,5.033177 -0.239411,2.602912 -0.664048,2.92782 -2.999999,1.418213 -1.27007,-0.820781 -1.22108,-0.971722 0.31955,-0.984687 1.31176,-0.01104 1.73037,-0.643242 1.5,-2.265313 -0.28848,-2.031273 -0.95142,-2.280261 -6.81955,-2.561293 -11.184287,0.52325 -74.070211,10.624419 -70.58558,25.326328 0.582855,2.322276 0.876469,2.490913 2.303859,1.323216 1.449323,-1.18564 1.514094,-1.11809 0.567975,0.592354 -1.239666,2.241136 0.886692,5.198579 2.860587,3.978644 0.744255,-0.459975 0.891588,-0.280441 0.409709,0.499256 -1.104288,1.786776 2.50324,5.548625 3.70658,3.865129 0.63314,-0.885787 0.77505,-0.645271 0.46602,0.78982 -0.51604,2.396386 4.76265,6.244051 5.63497,4.107358 0.26289,-0.643947 0.51351,-0.256969 0.55694,0.85995 0.10734,2.761179 5.7585,5.064297 6.41018,2.612459 0.31256,-1.175961 0.46975,-1.038008 0.55276,0.485141 0.0875,1.605723 1.08502,2.374325 4.06218,3.130007 3.62407,0.919888 3.98026,0.827788 4.36381,-1.128362 0.40431,-2.061955 0.422,-2.058122 0.55383,0.119993 0.11948,1.973969 0.67925,2.25 4.56286,2.25 3.375,0 4.53532,-0.415761 4.884,-1.75 0.41264,-1.579043 0.46865,-1.568592 0.57332,0.106989 0.086,1.376783 0.56854,1.66062 1.866,1.097617 0.9625,-0.417655 3.24789,-0.969164 5.07865,-1.225576 3.00357,-0.420675 3.27134,-0.723189 2.74187,-3.097617 -0.58492,-2.623062 -0.5826,-2.624141 0.72877,-0.33987 l 1.31555,2.291543 1.84757,-2.041543 c 1.01616,-1.122849 2.41069,-2.041543 3.09896,-2.041543 0.78851,0 1.05485,-0.832258 0.72004,-2.25 -0.50089,-2.121002 -0.44966,-2.144698 0.8936,-0.413299 1.35543,1.74708 1.48246,1.710484 2.60354,-0.75 0.64821,-1.422686 1.66855,-2.586701 2.2674,-2.586701 0.67295,0 0.81702,-0.85639 0.37719,-2.242158 -0.58202,-1.833792 -0.45769,-2.036581 0.68262,-1.113425 1.11069,0.899176 1.72319,0.442512 3.01167,-2.245426 1.2377,-2.582008 1.33769,-3.606315 0.4259,-4.363031 -0.85234,-0.707377 -2.07925,0.270565 -4.31005,3.43543 -10.93143,15.50854 -37.96453,18.319668 -52.5667,5.466325 C 29.888384,76.15635 25.547504,69.89838 26.727741,68.802336 45.949536,55.135245 78.078422,47.225929 95.01192,51.515366 l -1.210353,8.331669 c -0.308619,2.124436 0.579426,3.44158 2.159764,3.577451 2.291405,0.197006 1.483071,1.501724 0.74357,4.180449 -0.2853,1.033454 -0.735284,2.649527 -1.5,3.881898 -0.602883,0.971571 -1.241717,2.788698 -1.85909,3.798033 -0.625802,1.023115 -0.911207,2.03721 -2.049412,3.695557 -0.816925,1.190248 -2.633539,2.697437 -3.314061,3.648993 -0.667959,0.93399 -1.437992,2.28391 -2.285067,2.999571 -2.30712,1.949196 -4.188784,4.057014 -10.718652,7.032907 -7.009034,3.194265 -20.572718,3.109261 -27.191771,1.283809 z M 17.134619,74.354935 c 0.09402,1.672113 4.789594,2.321048 4.789594,0.647069 0,-0.735783 -3.915157,-2.581749 -6.724195,-3.301683 -2.752688,-0.705493 -6.0151874,-2.125594 -7.2500002,-3.155781 -0.8268513,-0.689831 0.1417603,0.197072 0,0 C 15.038752,46.444582 42.178417,21.413854 55.067931,16.580033 c 0.65594,0.01663 1.828203,-0.743403 2.241974,-0.227036 0.81049,1.074147 2.448846,4.141579 3.104566,5.954932 0.74702,2.065847 1.86403,3.297006 2.99132,3.297006 2.12309,0 2.14872,-0.138585 0.6386,-3.452947 -0.63829,-1.400879 -1.87579,-2.599254 -2.75,-2.663054 -1.28309,-0.09364 -1.25215,-0.204158 0.16051,-0.573325 1.96851,-0.514424 1.98118,-0.54467 1.14301,-2.728887 -0.33384,-0.869983 -1.54485,-1.581788 -2.69113,-1.581788 -1.92273,0 -1.9505,-0.09772 -0.35857,-1.261768 1.50861,-1.103123 1.54893,-1.503353 0.32061,-3.183178 -1.35665,-1.8553275 -1.60718,-1.7887269 -7.28444,1.936533 -18.0245,11.827154 -38.304141,33.27762 -47.2103592,49.935996 -3.560099,6.658882 -3.774749,7.824899 -1.749839,9.505425 1.121111,0.930439 1.639931,0.7986 2.469591,-0.627556 0.967196,-1.662576 1.05272,-1.633991 1.080722,0.361216 0.03819,2.720863 2.140036,3.517679 3.7486052,1.421104 0.949768,-1.237907 1.225204,-1.281539 1.25,-0.198014 0.01749,0.764367 0.819303,1.968397 1.781803,2.675623 1.469152,1.079504 1.859084,1.016954 2.429715,-0.389758 0.373843,-0.921592 0.711343,-1.113122 0.75,-0.425622 z m 77.733182,-5.667866 c 0.78998,-2.092888 0.79541,-3.223822 0.0192,-4 -1.72827,-1.728264 -2.39059,-1.289872 -3.05268,2.020572 -1.0619,5.309497 1.21554,6.795604 3.03344,1.979428 z m -31.6629,-21.500347 c 0.234937,-1.717698 0.911971,-3.539307 0.20482,-4.581787 -2.820664,0.45868 -4.49795,5.514694 -1.6528,6 0.79639,0 1.44798,-0.638196 1.44798,-1.418213 z m 2.11883,-7.831787 c -0.45741,-1.2375 -0.63378,-2.8125 -0.39191,-3.5 0.24186,-0.6875 0.001,-1.25 -0.53418,-1.25 -0.53566,0 -2.009754,1.538464 -2.234484,3.463464 -0.33139,2.838552 0.778654,3.536536 2.217794,3.536536 1.41992,0 1.60829,-0.449539 0.94278,-2.25 z m 0.88117,-6.100777 c 0,-0.192927 -0.49402,-1.767927 -1.09782,-3.5 -1.24613,-3.574637 -4.314286,-4.260616 -3.386626,-0.799059 0.33163,1.2375 0.791453,2.9815 0.798963,3.669 0.008,0.6875 1.360483,0.980836 2.185483,0.980836 0.825,0 1.5,-0.15785 1.5,-0.350777 z m 31.26637,27.538591 c 0.150045,-1.150394 -0.39261,-2.634998 -1.15787,-3.557082 -1.20592,-1.453045 -1.18425,-1.59703 0.16259,-1.080199 0.99014,0.379952 1.725058,-0.06529 2.02545,-1.227108 0.09874,-0.3819 0.230035,-4.011577 0.30784,-4.002625 0.137445,0.01581 0.344923,4.072909 0.20934,5.1792 0.0251,1.65 -0.256126,3.936792 -0.758433,5.036793 -0.441582,0.967016 -1.236536,3.589019 -1.299336,3.526218 -0.168631,-0.168631 0.280113,-2.109446 0.413378,-3.131184 z"
       style="fill:#ff7f2a;fill-opacity:1;stroke:none;stroke-opacity:0.362403" />
  </g>
</svg>
