<?xml version="1.0" encoding="UTF-8" standalone="no"?>
<svg
   xmlns:dc="http://purl.org/dc/elements/1.1/"
   xmlns:cc="http://creativecommons.org/ns#"
   xmlns:rdf="http://www.w3.org/1999/02/22-rdf-syntax-ns#"
   xmlns:svg="http://www.w3.org/2000/svg"
   xmlns="http://www.w3.org/2000/svg"
   xmlns:sodipodi="http://sodipodi.sourceforge.net/DTD/sodipodi-0.dtd"
   xmlns:inkscape="http://www.inkscape.org/namespaces/inkscape"
   inkscape:version="1.0 (1.0+r73+1)"
   sodipodi:docname="list_icon_torta.svg"
   viewBox="0 0 100 100"
   height="100"
   width="100"
   id="svg28"
   version="1.1">
  <metadata
     id="metadata34">
    <rdf:RDF>
      <cc:Work
         rdf:about="">
        <dc:format>image/svg+xml</dc:format>
        <dc:type
           rdf:resource="http://purl.org/dc/dcmitype/StillImage" />
        <dc:title></dc:title>
      </cc:Work>
    </rdf:RDF>
  </metadata>
  <defs
     id="defs32" />
  <sodipodi:namedview
     inkscape:current-layer="g36"
     inkscape:window-maximized="1"
     inkscape:window-y="0"
     inkscape:window-x="0"
     inkscape:cy="42.225004"
     inkscape:cx="38.858534"
     inkscape:zoom="3.549676"
     showgrid="false"
     id="namedview30"
     inkscape:window-height="698"
     inkscape:window-width="1360"
     inkscape:pageshadow="2"
     inkscape:pageopacity="0"
     guidetolerance="10"
     gridtolerance="10"
     objecttolerance="10"
     borderopacity="1"
     bordercolor="#666666"
     pagecolor="#ffffff" />
  <g
     id="g36"
     inkscape:label="Image"
     inkscape:groupmode="layer">
    <g
       transform="translate(-0.03972492,1.0252302)"
       id="g969">
      <g
         id="g40"
         transform="translate(2.3007459,-5.1788756)">
        <g
           id="g900"
           transform="matrix(1.2469603,0,0,1.2469603,-16.00178,-6.6922605)">
          <path
             sodipodi:nodetypes="ccsssssssssccssssssssssssssssss"
             id="path52"
             d="m 12.833821,61.621318 0.07645,-9.788845 21.140179,-0.499328 C 50.521297,50.944106 54.043275,51.951101 55,51.5 c 1.398602,-0.659448 3.917453,0.05027 14.035664,0.05027 9.579548,-3e-6 15.874692,-0.945148 18.585179,0.09212 C 89.198073,52.245981 89,54.10024 89,55.684679 c 0,1.461812 -0.696342,3.427288 -1.547426,4.367726 -1.396568,1.54319 -1.396568,1.860744 0,3.257312 2.004325,2.004324 2.387048,5.813438 0.367025,6.588594 C 86.949614,70.232155 69.673229,70 49.918213,70 l -37.295055,0.04286 z m 23.252993,-24.16656 c -1.821653,-1.821653 -2.46254,-7.040134 -0.285673,-7.040134 1.459907,0 3.220121,0.238388 3.711835,-0.172396 0.464482,-0.388033 -0.266697,-1.401835 -1.333263,-2.197788 -1.775173,-1.324771 -0.42865,-2.9019 2.340739,-2.601772 1.981134,0.214702 5.742639,1.326122 6.742648,3.115851 1.367453,2.447348 0.729828,7.145846 -0.97844,9.033461 -2.080754,2.299207 -8.360753,1.699871 -10.197846,-0.137222 z m 16.031174,0.75115 C 49.693012,35.780933 49.061394,29.454323 51.959336,30.0083 53.962992,30.391323 56,31.829479 56,30.19991 c 0,-1.118284 -1.591672,-2.280063 -2.279172,-2.557475 -0.6875,-0.277413 1.299254,-2.722048 2.701754,-2.765468 0.618292,-0.01914 2.352432,0.349299 3.351128,0.834069 1.26669,0.614856 2.399949,2.172799 2.768987,2.541838 0.825927,0.825926 1.376922,2.821727 1.080026,4.803035 -0.259175,1.729581 -1.385032,3.763087 -2.106024,4.484079 -1.682749,1.682749 -7.533664,2.530967 -9.398711,0.66592 z"
             style="fill:#ff5555" />
          <path
             sodipodi:nodetypes="ccssscccc"
             id="path48"
             d="M 12.791337,74.853869 12.623158,70.04286 50.950794,69.773903 c 23.337811,-0.163769 38.485705,-0.238331 37.885193,0.361714 -0.522937,0.5225 -1.263202,3.109253 -1.511208,5.184487 L 86.885004,79 H 50 13 Z"
             style="fill:#ffaaaa" />
          <path
             sodipodi:nodetypes="ssssssssssscccccssscssssssssssssssssssssssscsssssssssssssssssssssssss"
             id="path42"
             d="m 11.649588,79.973698 c -0.372822,-0.372822 -0.147016,-6.102581 -0.147016,-15.561742 0,-16.156171 0.410815,-17.263049 2.458129,-19.865787 C 16.816436,40.91569 22.00074,37.118571 24.695781,36 c 8.665629,-3.596651 11.067034,-1.608927 7.181554,-1.196391 -1.999081,0.21225 -6.621909,1.482628 -10.189297,3.839583 -2.516578,1.662691 -5.076668,3.962722 -6.619692,5.903961 -1.416125,1.78159 -1.640165,3.896507 -1.609899,4.652781 0.09296,2.322819 9.436314,1.161305 20.573814,1.310194 17.21302,0.230106 55.112196,-0.457969 55.112196,0.81707 0,1.276457 -37.736807,0.213083 -55.394457,0.44309 L 13,52.040577 V 65.520288 79 h 36.942502 36.942502 l 0.307498,-4.25 c 0.215209,-2.974445 0.626177,-4.611971 1.675981,-4.611971 1.166667,0 -0.215777,-0.250162 -0.547924,4.40467 l -0.398528,5.585113 -37.548168,-0.02004 C 28.33372,80.096004 12.02241,80.346519 11.649588,79.973698 Z M 87.25,61.75 c 0.229167,-0.6875 1.016667,-1.25 1.75,-1.25 0.733333,0 1.520833,0.5625 1.75,1.25 C 90.997863,62.49359 90.288889,63 89,63 87.711111,63 87.002137,62.49359 87.25,61.75 Z M 77.365797,45.315379 c -5.745747,-2.334972 -9.965613,-5.701312 -13.388788,-6.118831 -2.399201,-0.292627 -4.805291,0.726704 -5.745761,0.868183 -1.844343,0.277452 -4.04772,0.19933 -6.005798,-0.778392 -3.151216,-1.573488 -4.16759,-1.281227 -7.590133,0.411313 -2.072586,1.024949 -3.590024,0.466375 -5.119571,0.180116 -1.826449,-0.341826 -3.601587,-0.687203 -5.420912,-2.849348 -1.776571,-2.111335 -1.414932,-4.154573 -1.397029,-6.054103 0.01549,-1.643414 0.243894,-3.041556 1.85744,-4.754482 2.337232,-2.481183 4.495967,-2.287474 6.759641,-2.223334 0.08057,0.0023 0.569674,-1.695443 1.584279,-3.088848 1.252138,-1.71962 3.108895,-3.225188 3.634858,-3.495992 0.01517,-0.0078 -0.104373,0.236926 -0.571707,0.765556 -0.650408,0.735717 -1.923126,1.89108 -2.623721,2.954426 -0.983835,1.493241 -1.216448,2.918008 -1.182457,2.923481 1.114622,0.179471 2.467804,0.672596 3.654732,1.272605 3.232656,1.634153 2.217629,6.732907 6.751792,0.04766 3.145133,-2.618642 5.746037,-2.238058 8.460051,-0.123614 0.115072,0.08965 1.565508,-2.57327 3.34554,-4.015038 1.514243,-1.226489 4.027724,-1.243067 4.126399,-1.15727 0.210983,0.183447 -2.442512,0.541857 -3.471076,1.327433 -1.801049,1.375567 -3.595222,4.19819 -3.212354,4.605378 0.680037,0.72323 2.395648,2.955173 2.696816,3.588879 0.922347,1.940767 0.625177,3.711363 -0.553559,7.648699 -0.284328,0.949741 4.138456,2.536681 12.816411,6.869081 7.927573,3.957777 12.427343,6.068353 12.427343,6.91323 0,0.762007 -0.136081,-0.01547 -0.686081,0.131142 -0.55,0.146626 -3.721356,-2.830547 -11.146355,-5.847938 z M 45.01008,39.003947 c 0.605163,-0.404078 2.359505,-1.670333 3.047951,-2.976516 1.068933,-2.028075 1.202447,-5.938819 -0.469623,-8.180597 -2.44152,-3.273393 -8.554717,-4.172622 -11.705725,-2.108002 -2.892191,1.895036 -3.052456,9.141034 -0.581843,11.87103 1.693948,1.871792 7.744864,2.705734 9.70924,1.394085 z m 17.102687,-1.168893 c 1.31568,-1.190674 2.856788,-3.937744 2.569569,-6.020488 -0.555952,-4.031437 -4.762489,-7.702969 -8.288034,-7.702969 -2.386898,0 -6.826606,5.40958 -6.826606,7.888403 0,1.172333 -0.07639,3.91862 1.071248,5.457224 1.442525,1.933941 4.300357,2.562085 5.815976,2.562085 1.194193,0 4.652039,-1.274012 5.657847,-2.184255 z"
             style="fill:#ff6a6a;fill-opacity:1" />
        </g>
      </g>
    </g>
  </g>
</svg>
