<?xml version="1.0" encoding="UTF-8" standalone="no"?>
<svg
   xmlns:dc="http://purl.org/dc/elements/1.1/"
   xmlns:cc="http://creativecommons.org/ns#"
   xmlns:rdf="http://www.w3.org/1999/02/22-rdf-syntax-ns#"
   xmlns:svg="http://www.w3.org/2000/svg"
   xmlns="http://www.w3.org/2000/svg"
   xmlns:sodipodi="http://sodipodi.sourceforge.net/DTD/sodipodi-0.dtd"
   xmlns:inkscape="http://www.inkscape.org/namespaces/inkscape"
   inkscape:version="1.0 (1.0+r73+1)"
   sodipodi:docname="list_icon_dulces.svg"
   viewBox="0 0 100 100"
   height="100"
   width="100"
   id="svg1029"
   version="1.1">
  <metadata
     id="metadata1035">
    <rdf:RDF>
      <cc:Work
         rdf:about="">
        <dc:format>image/svg+xml</dc:format>
        <dc:type
           rdf:resource="http://purl.org/dc/dcmitype/StillImage" />
        <dc:title></dc:title>
      </cc:Work>
    </rdf:RDF>
  </metadata>
  <defs
     id="defs1033" />
  <sodipodi:namedview
     inkscape:current-layer="g1037"
     inkscape:window-maximized="1"
     inkscape:window-y="0"
     inkscape:window-x="0"
     inkscape:cy="36.85015"
     inkscape:cx="32.285771"
     inkscape:zoom="3.7264527"
     showgrid="false"
     id="namedview1031"
     inkscape:window-height="698"
     inkscape:window-width="1360"
     inkscape:pageshadow="2"
     inkscape:pageopacity="0"
     guidetolerance="10"
     gridtolerance="10"
     objecttolerance="10"
     borderopacity="1"
     bordercolor="#666666"
     pagecolor="#ffffff" />
  <g
     id="g1037"
     inkscape:label="Image"
     inkscape:groupmode="layer">
    <g
       transform="translate(1.0345248,-0.03384394)"
       id="g1083">
      <path
         id="path1061"
         d="M 44.535104,7.4964214 C 43.62189,6.1026795 41.535771,4.6945567 39.899285,4.3672595 36.431902,3.6737829 35.193951,2.2637894 37.332101,1.4433042 40.57806,0.19771311 50.336735,7.3259038 48.24676,9.4158789 47.12951,10.53313 46.214931,10.060161 44.535104,7.4964214 Z"
         style="fill:#6c3514" />
      <path
         id="path1071"
         d="m 17.044422,81.447165 c -11.362948,-54.29811 -5.681474,-27.149055 0,0 z M 41.465475,50.929704 c -3.827221,-1.536435 -6.290057,-1.868848 -10.5,-1.417204 -3.024999,0.324523 -8.360439,0.854307 -11.856532,1.177299 l -6.356532,0.587257 0.697619,-3.373279 c 2.053409,-9.929096 9.688581,-20.565209 17.883666,-24.912692 l 4.37108,-2.318852 3.975513,4.179132 c 3.451047,3.627804 4.536829,4.179133 8.23035,4.179133 3.469192,0 4.852961,-0.600103 7.494122,-3.25 1.781607,-1.7875 3.44468,-3.874221 3.695719,-4.637158 0.676375,-2.055585 8.21153,1.584772 14.078247,6.801434 4.821197,4.286988 10.032374,13.469542 11.326904,19.959003 l 0.672908,3.373279 -6.356532,-0.574962 c -3.496093,-0.31623 -8.666035,-0.873866 -11.48876,-1.239193 -3.977828,-0.514823 -6.404282,-0.188293 -10.787513,1.451684 -6.892886,2.578959 -8.689308,2.58076 -15.080259,0.01512 z m -2.5,-8.399206 c 0,-0.825 -0.423442,-1.5 -0.940983,-1.5 -1.260978,0 -2.164095,1.561589 -1.365164,2.36052 1.126184,1.126184 2.306147,0.68589 2.306147,-0.86052 z m 22.15,0 c 0,-0.5225 -0.48375,-1.11125 -1.075,-1.308333 -0.59125,-0.197084 -1.075,0.391666 -1.075,1.308333 0,0.916667 0.48375,1.505417 1.075,1.308333 0.59125,-0.197083 1.075,-0.785833 1.075,-1.308333 z M 50.42277,37.099596 c 0.739541,-1.196602 -1.141625,-2.382227 -2.473607,-1.559017 -1.118358,0.691184 -0.384167,2.489919 1.016312,2.489919 0.485081,0 1.140864,-0.418906 1.457295,-0.930902 z"
         style="fill:#e9c6af"
         sodipodi:nodetypes="ccssscsscsssssscssssssssssssssssss" />
      <path
         id="path1067"
         d="M 40.965475,66.429343 C 33.488092,63.925244 33.443967,63.922779 26.333421,65.612095 15.437158,68.200816 9.9654755,65.733202 9.9654755,58.230498 c 0,-4.733386 1.4138175,-6.203561 5.9499995,-6.187183 1.9525,0.007 6.775883,-0.741597 10.718628,-1.66366 7.007102,-1.638702 7.302337,-1.627725 13.102671,0.487183 7.480636,2.727576 10.769126,2.71674 18.730272,-0.06172 6.268363,-2.187676 6.486116,-2.196148 12.85155,-0.5 3.561332,0.948958 8.223787,1.72538 10.361014,1.72538 4.875403,0 6.285865,1.391195 6.285865,6.2 0,7.472907 -5.630454,10.059478 -16.027454,7.362844 l -6.696868,-1.736943 -8.189461,2.587049 c -4.504203,1.422878 -8.278731,2.566917 -8.387839,2.542309 -0.109108,-0.02461 -3.573378,-1.174993 -7.698378,-2.556414 z m 2.212567,-38.905452 c -4.573322,-1.987017 -6.840987,-7.452547 -5.269004,-12.69936 1.315308,-4.390107 5.476491,-7.7739795 7.307784,-5.942687 1.604615,1.604616 3.748653,1.433416 3.748653,-0.299327 0,-1.1673653 0.568605,-1.2497636 2.934016,-0.425177 8.407428,2.930846 8.787276,15.404875 0.587582,19.295885 -4.014177,1.904851 -5.069035,1.912859 -9.309031,0.07067 z"
         style="fill:#c83737" />
      <path
         id="path1063"
         d="m 25.353593,98.077282 c -4.099835,-1.70865 -6.089044,-5.601121 -6.778011,-13.263167 -0.360217,-4.005989 -0.921702,-9.646117 -1.247746,-12.533617 -0.557276,-4.93533 -0.459695,-5.25 1.628071,-5.25 1.221484,0 4.95025,-0.707251 8.286147,-1.571669 5.835398,-1.512103 6.294777,-1.487986 12.121005,0.636364 3.330656,1.214418 7.651743,2.208032 9.602416,2.208032 1.950673,0 6.27176,-0.993614 9.602416,-2.208032 5.826228,-2.12435 6.285607,-2.148467 12.121005,-0.636364 3.335897,0.864418 7.056997,1.571669 8.26911,1.571669 2.083461,0 2.172189,0.314086 1.62434,5.75 -0.318725,3.1625 -0.871609,8.846096 -1.228628,12.630213 -0.526326,5.578645 -1.176125,7.4704 -3.434889,10 l -2.785764,3.119787 -22.833796,0.213467 C 37.740682,98.861372 26.515128,98.561364 25.353593,98.077282 Z m 12.611882,-6.153451 c 0,-2.925464 -3.367418,-19.508661 -4.13096,-20.343333 -2.976398,-3.25368 -2.703942,4.87982 0.643164,19.2 0.526887,2.254222 3.487796,3.224836 3.487796,1.143333 z m 12.5,-9.976666 c 0,-8.592593 -0.262667,-10.416667 -1.5,-10.416667 -1.206731,0 -1.556668,1.842705 -1.789841,9.424983 -0.312179,10.151328 0.08883,12.475354 2.040367,11.824842 0.892677,-0.297559 1.249474,-3.391052 1.249474,-10.833158 z m 14.646629,0.585754 c 1.119919,-6.347084 1.414794,-10.340999 0.808267,-10.947526 -1.662227,-1.662226 -2.631129,0.598378 -4.323935,10.088438 -2.018704,11.317068 -2.017287,11.577715 0.06077,11.177517 1.304423,-0.251209 2.095397,-2.613541 3.454896,-10.318429 z"
         style="fill:#c87137" />
    </g>
  </g>
</svg>
